<svg xmlns="http://www.w3.org/2000/svg" viewBox="0 0 1200 700" width="1200" height="700">
  <defs>
    <linearGradient id="navyGrad" x1="0%" y1="0%" x2="100%" y2="100%">
      <stop offset="0%" style="stop-color:#1a3a8a;stop-opacity:1" />
      <stop offset="100%" style="stop-color:#0d2b6b;stop-opacity:1" />
    </linearGradient>
    <linearGradient id="greenGrad" x1="0%" y1="100%" x2="100%" y2="0%">
      <stop offset="0%" style="stop-color:#22a652;stop-opacity:1" />
      <stop offset="100%" style="stop-color:#2ecc71;stop-opacity:1" />
    </linearGradient>
    <linearGradient id="cyanGrad" x1="0%" y1="0%" x2="100%" y2="100%">
      <stop offset="0%" style="stop-color:#00bcd4;stop-opacity:1" />
      <stop offset="100%" style="stop-color:#0097a7;stop-opacity:1" />
    </linearGradient>
    <filter id="glow" x="-20%" y="-20%" width="140%" height="140%">
      <feGaussianBlur stdDeviation="2" result="blur"/>
      <feComposite in="SourceGraphic" in2="blur" operator="over"/>
    </filter>
    <filter id="softShadow" x="-10%" y="-10%" width="120%" height="130%">
      <feDropShadow dx="0" dy="4" stdDeviation="6" flood-color="#000" flood-opacity="0.1"/>
    </filter>
  </defs>
  <rect width="1200" height="700" fill="#f5f5f5" rx="0"/>
  <rect x="0" y="0" width="1200" height="56" fill="#22a652" rx="0"/>
  <g transform="translate(240, 18)" fill="white">
    <path d="M0 4.5C0 2 2 0 4.5 0h3.2c.8 0 1.5.5 1.8 1.2l1.5 3.5c.2.6.1 1.3-.4 1.7L8.5 8.2c1.2 2.2 2.8 3.8 5 5l1.8-2.1c.4-.5 1.1-.6 1.7-.4l3.5 1.5c.7.3 1.2 1 1.2 1.8v3.2c0 2.5-2 4.5-4.5 4.5C8 21.7.3 14 0 4.5z" transform="scale(0.85)"/>
  </g>
  <text x="262" y="36" fill="white" font-family="'DM Sans', Arial, sans-serif" font-size="17" font-weight="600" letter-spacing="0.5">Please call us at : (425) 435-0093</text>
  <g transform="translate(590, 20)" fill="white">
    <rect x="0" y="2" width="18" height="13" rx="2" fill="none" stroke="white" stroke-width="1.5"/>
    <path d="M0 4l9 6 9-6" fill="none" stroke="white" stroke-width="1.5" stroke-linecap="round"/>
  </g>
  <text x="616" y="36" fill="white" font-family="'DM Sans', Arial, sans-serif" font-size="17" font-weight="600" letter-spacing="0.5">lustreservicesal@gmail.com</text>
  <g transform="translate(600, 340)" filter="url(#softShadow)">
    <path d="M-60 -120 Q-130 -100 -140 -20 Q-145 40 -110 90 Q-80 130 -20 140 Q30 148 80 130" fill="none" stroke="url(#navyGrad)" stroke-width="14" stroke-linecap="round"/>
    <g transform="translate(-20, -70)">
      <path d="M-55 10 L0 -45 L55 10" fill="url(#navyGrad)" stroke="url(#navyGrad)" stroke-width="3" stroke-linejoin="round"/>
      <rect x="-38" y="10" width="76" height="55" fill="url(#navyGrad)" rx="2"/>
      <rect x="-12" y="-8" width="24" height="22" fill="white" rx="1.5"/>
      <line x1="0" y1="-8" x2="0" y2="14" stroke="url(#navyGrad)" stroke-width="2.5"/>
      <line x1="-12" y1="3" x2="12" y2="3" stroke="url(#navyGrad)" stroke-width="2.5"/>
    </g>
    <g transform="translate(-130, -60)" filter="url(#glow)">
      <path d="M0 -18 L3 -3 L18 0 L3 3 L0 18 L-3 3 L-18 0 L-3 -3 Z" fill="#1a3a8a" opacity="0.9"/>
    </g>
    <g transform="translate(-160, -100)">
      <path d="M0 -10 L2 -2 L10 0 L2 2 L0 10 L-2 2 L-10 0 L-2 -2 Z" fill="#1a3a8a" opacity="0.7"/>
    </g>
    <g transform="translate(-100, -110)">
      <path d="M0 -7 L1.5 -1.5 L7 0 L1.5 1.5 L0 7 L-1.5 1.5 L-7 0 L-1.5 -1.5 Z" fill="#00bcd4" opacity="0.8"/>
    </g>
    <circle cx="-145" cy="-35" r="2.5" fill="#1a3a8a" opacity="0.5"/>
    <circle cx="-110" cy="-85" r="2" fill="#00bcd4" opacity="0.6"/>
    <g transform="translate(100, -40)">
      <rect x="-4" y="30" width="8" height="55" fill="url(#greenGrad)" rx="3"/>
      <path d="M0 -50 Q-8 -30 -30 -35" fill="none" stroke="url(#greenGrad)" stroke-width="4" stroke-linecap="round"/>
      <path d="M0 -50 Q8 -25 35 -30" fill="none" stroke="url(#greenGrad)" stroke-width="4" stroke-linecap="round"/>
      <path d="M0 -30 Q-12 -10 -40 -5" fill="none" stroke="url(#greenGrad)" stroke-width="3.5" stroke-linecap="round"/>
      <path d="M0 -30 Q10 -5 38 5" fill="none" stroke="url(#greenGrad)" stroke-width="3.5" stroke-linecap="round"/>
      <path d="M0 -10 Q-10 5 -32 15" fill="none" stroke="url(#greenGrad)" stroke-width="3" stroke-linecap="round"/>
      <path d="M0 -10 Q12 10 30 20" fill="none" stroke="url(#greenGrad)" stroke-width="3" stroke-linecap="round"/>
      <path d="M0 -50 L0 30" fill="none" stroke="url(#greenGrad)" stroke-width="5" stroke-linecap="round"/>
      <circle cx="-30" cy="-35" r="5" fill="#2ecc71" opacity="0.7"/>
      <circle cx="35" cy="-30" r="5" fill="#2ecc71" opacity="0.7"/>
      <circle cx="-40" cy="-5" r="4.5" fill="#22a652" opacity="0.6"/>
      <circle cx="38" cy="5" r="4.5" fill="#22a652" opacity="0.6"/>
      <circle cx="-32" cy="15" r="4" fill="#2ecc71" opacity="0.5"/>
      <circle cx="30" cy="20" r="4" fill="#2ecc71" opacity="0.5"/>
      <circle cx="-15" cy="-45" r="3.5" fill="#2ecc71" opacity="0.6"/>
      <circle cx="18" cy="-40" r="3.5" fill="#22a652" opacity="0.6"/>
      <circle cx="0" cy="-55" r="4" fill="#2ecc71" opacity="0.7"/>
    </g>
  </g>
  <text x="600" y="510" text-anchor="middle" fill="#1a3a8a" font-family="'DM Sans', 'Arial Black', Arial, sans-serif" font-size="52" font-weight="900" letter-spacing="8">LUSTRE SERVICES</text>
  <text x="600" y="555" text-anchor="middle" fill="#22a652" font-family="'DM Sans', Arial, sans-serif" font-size="26" font-weight="600" letter-spacing="3" font-style="italic">Landscaping &amp; Cleaning</text>
  <line x1="440" y1="575" x2="760" y2="575" stroke="#22a652" stroke-width="1.5" opacity="0.3"/>
</svg>